<svg width="16" height="21" viewBox="0 0 16 21" fill="none" xmlns="http://www.w3.org/2000/svg">
<path d="M1.5 8.74995V19.25C1.5 19.388 1.612 19.5 1.75 19.5H14.25C14.3163 19.5 14.3799 19.4736 14.4268 19.4267C14.4737 19.3798 14.5 19.3163 14.5 19.25V8.74995C14.5 8.68365 14.4737 8.62006 14.4268 8.57317C14.3799 8.52629 14.3163 8.49995 14.25 8.49995H11.75C11.5511 8.49995 11.3603 8.42093 11.2197 8.28028C11.079 8.13963 11 7.94886 11 7.74995C11 7.55104 11.079 7.36027 11.2197 7.21962C11.3603 7.07897 11.5511 6.99995 11.75 6.99995H14.25C15.216 6.99995 16 7.78395 16 8.74995V19.25C16 19.7141 15.8156 20.1592 15.4874 20.4874C15.1592 20.8156 14.7141 21 14.25 21H1.75C1.28587 21 0.840752 20.8156 0.512563 20.4874C0.184375 20.1592 0 19.7141 0 19.25V8.74995C0 7.78395 0.784 6.99995 1.75 6.99995H4.25C4.44891 6.99995 4.63968 7.07897 4.78033 7.21962C4.92098 7.36027 5 7.55104 5 7.74995C5 7.94886 4.92098 8.13963 4.78033 8.28028C4.63968 8.42093 4.44891 8.49995 4.25 8.49995H1.75C1.6837 8.49995 1.62011 8.52629 1.57322 8.57317C1.52634 8.62006 1.5 8.68365 1.5 8.74995ZM8.53 0.21995L11.78 3.46995C11.8787 3.56162 11.9509 3.67823 11.9889 3.80747C12.0269 3.93672 12.0294 4.07383 11.996 4.20436C11.9626 4.33488 11.8947 4.45399 11.7993 4.54913C11.7039 4.64427 11.5846 4.71192 11.454 4.74495C11.3236 4.77826 11.1867 4.77587 11.0575 4.73805C10.9284 4.70022 10.8118 4.62834 10.72 4.52995L8.75 2.55995V13.25C8.75 13.4489 8.67098 13.6396 8.53033 13.7803C8.38968 13.9209 8.19891 14 8 14C7.80109 14 7.61032 13.9209 7.46967 13.7803C7.32902 13.6396 7.25 13.4489 7.25 13.25V2.55995L5.28 4.52995C5.13785 4.66259 4.94975 4.73485 4.75536 4.7315C4.56097 4.72814 4.37548 4.64942 4.238 4.51195C4.10053 4.37447 4.02181 4.18898 4.01846 3.99459C4.0151 3.8002 4.08736 3.6121 4.22 3.46995L7.47 0.21995C7.61063 0.0795 7.80125 0.000610352 8 0.000610352C8.19875 0.000610352 8.38937 0.0795 8.53 0.21995Z" fill="#253B6A"/>
</svg>
