<svg width="24" height="23" viewBox="0 0 24 23" fill="none" xmlns="http://www.w3.org/2000/svg">
<path d="M11.8672 0C5.51587 0 0.367188 5.14868 0.367188 11.5C0.367188 17.8513 5.51587 23 11.8672 23C18.2185 23 23.3672 17.8513 23.3672 11.5C23.3672 5.14868 18.2185 0 11.8672 0Z" fill="#B1B1B1"/>
<path d="M11.8672 16.5945C11.6436 16.5945 11.42 16.5368 11.2207 16.4215L7.92785 14.5204C7.5297 14.2912 7.28181 13.8621 7.28181 13.4016V9.59868C7.28181 9.13842 7.52944 8.7096 7.92785 8.47986L11.2209 6.57852C11.6196 6.34878 12.1146 6.34852 12.5128 6.57852L15.8064 8.47986C16.2048 8.7096 16.4522 9.13868 16.4522 9.59868V13.4013C16.4522 13.8621 16.2043 14.2907 15.8056 14.5207L12.513 16.4215C12.3142 16.5368 12.0909 16.5945 11.8672 16.5945ZM9.07095 13.1144L11.8672 14.729L14.6635 13.1146V9.88541L11.8672 8.27081L9.07095 9.88541V13.1144Z" fill="white"/>
</svg>
