<svg width="22" height="22" viewBox="0 0 22 22" fill="none" xmlns="http://www.w3.org/2000/svg">
<path d="M10.9974 0.167969C16.9806 0.167969 21.8307 5.01805 21.8307 11.0013C21.8307 16.9846 16.9806 21.8346 10.9974 21.8346C5.01415 21.8346 0.164062 16.9846 0.164062 11.0013C0.164062 5.01805 5.01415 0.167969 10.9974 0.167969ZM13.1641 12.518L11.4697 13.8732C11.4103 13.9208 11.3615 13.9804 11.3266 14.0482C11.2918 14.1159 11.2716 14.1902 11.2674 14.2663C11.2632 14.3424 11.2751 14.4184 11.3023 14.4896C11.3295 14.5608 11.3714 14.6254 11.4253 14.6792L12.7676 16.0215C13.0275 16.2817 13.2169 16.6038 13.3179 16.9575L13.5075 17.6216C13.5861 17.9002 13.7257 18.1578 13.9163 18.3757C14.1069 18.5937 14.3436 18.7664 14.6092 18.8815C15.6458 18.4058 16.5783 17.7303 17.3533 16.8936L17.0998 14.8601C17.0555 14.5064 16.9245 14.169 16.7185 13.878C16.5125 13.587 16.2379 13.3513 15.919 13.1918L14.3265 12.3945C14.1412 12.3017 13.9332 12.2641 13.7272 12.286C13.5212 12.3079 13.3257 12.3884 13.1641 12.518ZM10.9974 2.33464C9.67149 2.33375 8.36311 2.63748 7.17319 3.22239C5.98327 3.8073 4.94363 4.65775 4.13448 5.70814L3.95573 5.94755V7.77297C3.95559 8.43435 4.15724 9.08002 4.53374 9.62378C4.91024 10.1675 5.44368 10.5835 6.06281 10.8161L6.25565 10.8811L7.65315 11.309C9.14056 11.764 10.589 10.5539 10.4449 9.0383L10.4243 8.88122L10.2347 7.7448C10.1928 7.49307 10.2412 7.23463 10.3712 7.01503C10.5012 6.79544 10.7045 6.62879 10.9454 6.54447L11.0624 6.51197L11.7254 6.3603C12.1016 6.27432 12.4567 6.11386 12.7699 5.88838C13.083 5.66291 13.3478 5.37699 13.5487 5.04751C13.7495 4.71802 13.8823 4.35164 13.9392 3.96999C13.9962 3.58834 13.9761 3.19915 13.8801 2.82539C12.954 2.4997 11.9792 2.33376 10.9974 2.33464Z" fill="#B1B1B1"/>
</svg>
