<svg width="20" height="23" viewBox="0 0 20 23" fill="none" xmlns="http://www.w3.org/2000/svg">
<path d="M12.0802 6.62997C12.0102 6.52997 11.9302 6.43997 11.8502 6.35997H11.8402C11.5302 6.04997 11.1502 5.80997 10.7302 5.66997L9.3502 5.21997C9.2502 5.17997 9.1502 5.10997 9.0902 5.01997C9.0202 4.92997 8.9902 4.81997 8.9902 4.70997C8.9902 4.59997 9.0202 4.48997 9.0902 4.39997C9.1502 4.30997 9.2402 4.23997 9.3502 4.19997L10.7302 3.74997C11.1502 3.60997 11.5202 3.36997 11.8302 3.05997C12.1202 2.75997 12.3502 2.38997 12.5002 1.98997V1.95997L12.9502 0.579971C12.9902 0.479971 13.0602 0.379971 13.1502 0.319971C13.2402 0.249971 13.3502 0.219971 13.4602 0.219971C13.5702 0.219971 13.6802 0.259971 13.7702 0.319971C13.8602 0.379971 13.9302 0.469971 13.9702 0.579971L14.4202 1.95997C14.5602 2.37997 14.8002 2.75997 15.1102 3.06997C15.4202 3.38997 15.8002 3.61997 16.2202 3.75997L17.6002 4.20997H17.6302C17.7302 4.24997 17.8202 4.31997 17.8902 4.40997C17.9602 4.49997 17.9902 4.60997 17.9902 4.71997C17.9902 4.82997 17.9602 4.93997 17.8902 5.02997C17.8302 5.11997 17.7402 5.18997 17.6302 5.22997L16.2502 5.67997C15.8302 5.81997 15.4502 6.05997 15.1402 6.36997C14.8202 6.67997 14.5902 7.05997 14.4502 7.47997L13.9902 8.85997V8.88997C13.9502 8.97997 13.8802 9.05997 13.8002 9.11997C13.7102 9.18997 13.6002 9.21997 13.4902 9.21997C13.3802 9.21997 13.2702 9.18997 13.1802 9.11997C13.0902 9.05997 13.0202 8.96997 12.9802 8.85997L12.5302 7.47997C12.4302 7.16997 12.2802 6.87997 12.0802 6.62997ZM19.7802 10.43L19.0102 10.19C18.7702 10.11 18.5602 9.97997 18.3902 9.80997C18.2202 9.62997 18.0902 9.41997 18.0102 9.18997L17.7602 8.42997C17.7402 8.36997 17.7002 8.31997 17.6502 8.27997C17.6002 8.23997 17.5402 8.21997 17.4802 8.21997C17.4202 8.21997 17.3602 8.23997 17.3102 8.27997C17.2602 8.31997 17.2202 8.36997 17.2002 8.42997L16.9502 9.18997C16.8802 9.41997 16.7502 9.62997 16.5802 9.79997C16.4102 9.96997 16.2002 10.1 15.9702 10.18L15.2002 10.43C15.1402 10.45 15.0902 10.49 15.0502 10.54C15.0102 10.59 14.9902 10.65 14.9902 10.71C14.9902 10.77 15.0102 10.83 15.0502 10.88C15.0902 10.93 15.1402 10.97 15.2002 10.99L15.9702 11.24C16.2002 11.31 16.4202 11.45 16.5902 11.62C16.7602 11.79 16.8902 12.01 16.9702 12.24L17.2202 13C17.2402 13.06 17.2802 13.11 17.3302 13.15C17.3802 13.19 17.4402 13.21 17.5002 13.21C17.5602 13.21 17.6202 13.19 17.6702 13.15C17.7202 13.11 17.7602 13.06 17.7802 13L18.0302 12.24C18.1102 12 18.2402 11.79 18.4102 11.62C18.5902 11.45 18.8002 11.32 19.0302 11.24L19.8002 10.99C19.8602 10.97 19.9102 10.93 19.9502 10.88C19.9902 10.83 20 10.77 20 10.71C20 10.65 19.9902 10.59 19.9502 10.54C19.9107 10.4906 19.8438 10.4609 19.7802 10.43ZM15.54 12.71L15.8 13.51C15.85 13.65 15.92 13.76 16 13.88V19.96C16 21.2 14.99 22.21 13.75 22.21H2.25C1.01 22.21 0 21.2 0 19.96V4.45996C0 3.21996 1.01 2.20996 2.25 2.20996H10.51C10.44 2.24996 10.36 2.28996 10.29 2.31996L8.87 2.77996C8.47 2.92996 8.12 3.17996 7.88 3.52996C7.63 3.87996 7.5 4.27996 7.5 4.70996C7.5 5.13996 7.63 5.54996 7.87 5.88996C7.9477 6.00225 8.0479 6.09216 8.1446 6.17902C8.1598 6.19272 8.175 6.20634 8.19 6.21996H3.75C3.34 6.21996 3 6.55996 3 6.96996C3 7.37996 3.34 7.71996 3.75 7.71996H10.99C11.0011 7.73935 11.0129 7.75873 11.0249 7.77833C11.0562 7.8295 11.0883 7.88212 11.11 7.93996L11.57 9.34996C11.71 9.74996 11.97 10.09 12.32 10.34C12.67 10.58 13.08 10.71 13.5 10.71C13.5 11.08 13.61 11.44 13.83 11.75C14.05 12.06 14.35 12.28 14.74 12.42L15.54 12.71ZM3.75 17.71H12.25C12.66 17.71 13 17.37 13 16.96C13 16.55 12.66 16.21 12.25 16.21H3.75C3.34 16.21 3 16.55 3 16.96C3 17.37 3.34 17.71 3.75 17.71ZM3.75 12.71H12.25C12.66 12.71 13 12.37 13 11.96C13 11.55 12.66 11.21 12.25 11.21H3.75C3.34 11.21 3 11.55 3 11.96C3 12.37 3.34 12.71 3.75 12.71Z" fill="#B1B1B1"/>
</svg>
