<svg width="24" height="24" viewBox="0 0 24 24" fill="none" xmlns="http://www.w3.org/2000/svg">
<path d="M12.002 1.09808V10.094L12.0026 10.8332L20.9339 10.8317L18.8667 8.30863C18.5472 7.91882 18.5182 7.30892 18.7797 6.87919L18.867 6.75608C19.1866 6.3664 19.6866 6.33107 20.039 6.65004L20.1399 6.75635L23.7364 11.1441C24.0557 11.5336 24.085 12.1428 23.824 12.5726L23.737 12.6957L20.1405 17.0919C19.7894 17.5212 19.2195 17.522 18.8676 17.0938C18.5476 16.7045 18.5179 16.0947 18.779 15.6645L18.8661 15.5412L20.9219 13.0274L12.0026 13.0288L12.002 22.9018C12.002 23.5845 11.4965 24.1017 10.9454 23.983L0.743586 21.7854C0.313505 21.6928 0 21.237 0 20.7043V3.14123C0 2.60358 0.319266 2.14505 0.754292 2.05792L10.9561 0.0147729C11.5041 -0.0949792 12.002 0.42076 12.002 1.09808ZM7.8039 11.5578C7.13962 11.5578 6.60112 12.2146 6.60112 13.0247C6.60112 13.8349 7.13962 14.4916 7.8039 14.4916C8.46818 14.4916 9.00669 13.8349 9.00669 13.0247C9.00669 12.2146 8.46818 11.5578 7.8039 11.5578ZM13.2022 21.8059L14.1206 21.8062L14.2428 21.7961C14.6827 21.7232 15.0215 21.263 15.0208 20.7065L15.0121 14.4853H13.2022V21.8059ZM13.2046 9.36218L13.2022 7.49639V2.0434L14.0967 2.04342C14.5519 2.04342 14.9282 2.45549 14.9885 2.99063L14.9969 3.13942L15.0049 9.36218H13.2046Z" fill="#B1B1B1"/>
</svg>
