<svg width="20" height="20" viewBox="0 0 20 20" fill="none" xmlns="http://www.w3.org/2000/svg">
<path d="M18 3.25C18 1.45507 16.5449 0 14.75 0H3.25C1.45507 0 0 1.45507 0 3.25V4H18V3.25ZM18 9.0218V5.5H0V14.75C0 16.5449 1.45507 18 3.25 18H9.0218C8.375 16.9897 8 15.7886 8 14.5C8 10.9101 10.9101 8 14.5 8C15.7886 8 16.9897 8.375 18 9.0218ZM20 14.5C20 11.4624 17.5376 9 14.5 9C11.4624 9 9 11.4624 9 14.5C9 17.5376 11.4624 20 14.5 20C17.5376 20 20 17.5376 20 14.5ZM14.5 11C14.7761 11 15 11.2239 15 11.5V14H17C17.2761 14 17.5 14.2239 17.5 14.5C17.5 14.7761 17.2761 15 17 15H14.5C14.2239 15 14 14.7761 14 14.5V11.5C14 11.2239 14.2239 11 14.5 11Z" fill="#B1B1B1"/>
</svg>
