<svg width="18" height="20" viewBox="0 0 18 20" fill="none" xmlns="http://www.w3.org/2000/svg">
<path d="M8 0V6C8 7.10457 8.8954 8 10 8H14.9209C14.324 8.2196 13.7756 8.5541 13.3621 8.9704L7.3114 15.0623C6.9598 15.4164 6.7086 15.8576 6.5836 16.3407L6.0588 18.3701C5.90491 18.9651 6.0168 19.5396 6.3007 20H1.5C0.67157 20 0 19.3284 0 18.5V1.5C0 0.67157 0.67157 0 1.5 0H8ZM9.5 0.5V6C9.5 6.27614 9.7239 6.5 10 6.5H15.5L9.5 0.5ZM8.1957 15.5719L14.0981 9.6695C14.9907 8.7768 16.4379 8.7768 17.3305 9.6695C18.2231 10.5621 18.2231 12.0093 17.3305 12.9019L11.4281 18.8043C11.084 19.1485 10.6528 19.3926 10.1806 19.5106L8.3499 19.9683C7.5538 20.1674 6.8326 19.4462 7.0317 18.6501L7.4894 16.8194C7.6074 16.3472 7.8515 15.916 8.1957 15.5719Z" fill="#B1B1B1"/>
</svg>
