<svg width="24" height="20" viewBox="0 0 24 20" fill="none" xmlns="http://www.w3.org/2000/svg">
<path d="M15.2507 0.25C15.538 0.25 15.8135 0.364137 16.0167 0.567301C16.2198 0.770465 16.334 1.04602 16.334 1.33333V3.5H20.6673C20.9546 3.5 21.2302 3.61414 21.4333 3.8173C21.6365 4.02047 21.7506 4.29602 21.7506 4.58333V17.5833H23.9173V19.75H0.0839844V17.5833H2.25065V4.58333C2.25065 4.29602 2.36479 4.02047 2.56795 3.8173C2.77112 3.61414 3.04667 3.5 3.33398 3.5H7.66732V1.33333C7.66732 1.04602 7.78145 0.770465 7.98462 0.567301C8.18778 0.364137 8.46333 0.25 8.75065 0.25H15.2507ZM9.83398 5.66667H7.66732V17.5833H9.83398V5.66667ZM16.334 5.66667H14.1673V17.5833H16.334V5.66667ZM14.1673 2.41667H9.83398V3.5H14.1673V2.41667Z" fill="#B1B1B1"/>
</svg>
